# xmcd CD database file
#
# Track frame offsets:
#	150
#	89752
#	121753
#	187417
#	235353
#
# Disc length: 3704 seconds
#
# Revision: 0
# Processed by: cddbd v1.5.2PL0 Copyright (c) Steve Scherf et al.
# Submitted via: CDex 1.51
#
DISCID=450e7605
DTITLE=Bijaya Vaidya - Music of peace
DYEAR=2004
DGENRE=New Age
TTITLE0=Shanti
TTITLE1=Pahad
TTITLE2=Kosis
TTITLE3=Harsha
TTITLE4=Dehat
EXTD=YEAR: 2004
EXTT0=
EXTT1=
EXTT2=
EXTT3=
EXTT4=
PLAYORDER=
